<svg xmlns="http://www.w3.org/2000/svg" xmlns:xlink="http://www.w3.org/1999/xlink" width="451" height="457.736" viewBox="0 0 451 457.736">
  <defs>
    <clipPath id="clip-path">
      <circle id="Elipse_559" data-name="Elipse 559" cx="225.5" cy="225.5" r="225.5"/>
    </clipPath>
  </defs>
  <g id="img_client" transform="translate(0 0.017)">
    <g id="Grupo_6944" data-name="Grupo 6944" transform="translate(0 6.719)">
      <g id="Grupo_6943" data-name="Grupo 6943" clip-path="url(#clip-path)">
        <g id="Grupo_6941" data-name="Grupo 6941" transform="translate(257.267 287.812)">
          <g id="Grupo_6939" data-name="Grupo 6939" transform="translate(0 0)">
            <g id="Grupo_6938" data-name="Grupo 6938" transform="translate(23.483 78.774)">
              <path id="Trazado_3167" data-name="Trazado 3167" d="M173.648,299.672,143.072,157.4,118.4,162.143a172.326,172.326,0,0,1,5.691,20.629c1.9,8.773,23.948,84.653,26.084,92.476,1.661,6.165,6.876,27.031,9.02,37.937a2.817,2.817,0,0,0,4.98,1.186l8.062-9.959a4.292,4.292,0,0,0,1.411-4.741Z" transform="translate(-118.4 -157.4)" fill="#f7c792"/>
              <path id="Trazado_3168" data-name="Trazado 3168" d="M143.072,157.4,118.4,162.143s2.608,7.351,4.51,14.7a39.947,39.947,0,0,0,9.723-2.608c5.216-1.9,9.484-8.537,11.62-11.856Z" transform="translate(-118.4 -157.4)" fill="#f1ab72"/>
            </g>
            <path id="Trazado_3169" data-name="Trazado 3169" d="M115.139,124.24a24.89,24.89,0,0,1,20.393,8.3c9.484,9.959,21.1,29.166,31.535,62.363a55.1,55.1,0,0,1-22.051,13.278c-13.042,3.794-14.228,3.558-18.258,4.03s-9.484,1.661-9.484,1.661a222.22,222.22,0,0,1-6.632-40.548C108.268,148.177,105.9,132.995,115.139,124.24Z" transform="translate(-108.496 -124.176)" fill="#a0bada"/>
            <path id="Trazado_3170" data-name="Trazado 3170" d="M129.5,132.5a24.3,24.3,0,0,0-16.6-8.3,100.929,100.929,0,0,1,17.547,35.332c3.319,14.228,7.587,37.229,9.484,48.135a55.682,55.682,0,0,0,21.1-13.042C150.6,161.9,138.984,142.7,129.5,132.5Z" transform="translate(-102.459 -124.149)" fill="#b9c9df"/>
          </g>
          <g id="Grupo_6940" data-name="Grupo 6940" transform="translate(64.154 216.777)">
            <path id="Trazado_3171" data-name="Trazado 3171" d="M142.9,231a49.77,49.77,0,0,1,2.122,13.042c-.236,5.216.236,9.959,2.372,10.67s3.558.95,4.269-3.083C152.148,247.836,147.88,231.947,142.9,231Z" transform="translate(-125.479 -194.485)" fill="#f1ab72"/>
            <path id="Trazado_3172" data-name="Trazado 3172" d="M148.232,215.6s14.464,12.092,21.34,23.948,6.632,15.652,6.165,17.547a29.1,29.1,0,0,1,2.372,22.051c-3.083,9.248-4.98,12.331-8.062,14.464s-4.51,2.122-5.454,1.422a1.857,1.857,0,0,1-.475-1.661,2.239,2.239,0,0,1-2.372-.711c-.95-1.186-.475-8.537-.475-13.265A43.773,43.773,0,0,0,156.528,259c-4.269-7.351-7.826-9.484-10.434-8.3s-2.847,6.632-2.122,8.537,3.794,7.587,3.083,11.381c-.475,3.558-.95,4.03-3.319,3.794s-6.632-4.03-7.587-10.67-.475-28.917-.475-33.427Z" transform="translate(-135.553 -215.6)" fill="#f7c792"/>
            <path id="Trazado_3173" data-name="Trazado 3173" d="M147.6,271.3c0-.475,5.927-4.743,7.113-11.142a37.937,37.937,0,0,0-.711-17.31c-1.422-4.98-3.794-11.142-3.794-11.142a43.653,43.653,0,0,1,6.876,12.567c1.186,5.216,1.422,13.278-.95,18.021a25.63,25.63,0,0,1-6.4,9.248c-1.661.95-1.9.711-1.9.711S147.6,272.246,147.6,271.3Z" transform="translate(-119.034 -193.523)" fill="#f1ab72"/>
            <path id="Trazado_3174" data-name="Trazado 3174" d="M154.969,237.313s-3.794-6.632-4.269-7.112a9.835,9.835,0,0,1,4.269,3.319,9.42,9.42,0,0,1,0,3.794Z" transform="translate(-114.783 -195.582)" fill="#f1ab72"/>
          </g>
        </g>
        <g id="Grupo_6941-2" data-name="Grupo 6941" transform="matrix(-0.985, 0.174, -0.174, -0.985, 241.514, 580.781)">
          <g id="Grupo_6939-2" data-name="Grupo 6939" transform="translate(0 59.806)">
            <g id="Grupo_6938-2" data-name="Grupo 6938" transform="translate(23.484 0)">
              <path id="Trazado_3167-2" data-name="Trazado 3167" d="M55.248,15.779,24.672,158.051,0,153.307a172.329,172.329,0,0,0,5.691-20.629c1.9-8.787,23.948-84.661,26.084-92.476,1.661-6.165,6.876-27.031,9.02-37.937a2.817,2.817,0,0,1,4.98-1.186l8.062,9.959a4.292,4.292,0,0,1,1.411,4.741Z" transform="translate(0)" fill="#f7c792"/>
              <path id="Trazado_3168-2" data-name="Trazado 3168" d="M24.672,19.446,0,14.7S2.608,7.351,4.51,0a39.945,39.945,0,0,1,9.723,2.608c5.216,1.9,9.484,8.535,11.62,11.856Z" transform="translate(0 138.605)" fill="#f1ab72"/>
            </g>
            <path id="Trazado_3169-2" data-name="Trazado 3169" d="M6.633,89.63a24.89,24.89,0,0,0,20.393-8.3c9.495-9.967,21.115-29.166,31.546-62.363A55.1,55.1,0,0,0,36.521,5.691C23.479,1.9,22.285,2.122,18.263,1.661S8.779,0,8.779,0A222.221,222.221,0,0,0,2.147,40.548C-.228,65.692-2.6,80.875,6.633,89.63Z" transform="translate(0 147.131)" fill="#a0bada"/>
            <path id="Trazado_3170-2" data-name="Trazado 3170" d="M16.6,75.168A24.3,24.3,0,0,1,0,83.467,100.929,100.929,0,0,0,17.547,48.135C20.865,33.907,25.134,10.906,27.031,0a55.683,55.683,0,0,1,21.1,13.042C37.7,45.766,26.084,64.971,16.6,75.168Z" transform="translate(10.442 153.307)" fill="#b9c9df"/>
          </g>
          <g id="Grupo_6940-2" data-name="Grupo 6940" transform="translate(64.155 0)">
            <path id="Trazado_3171-2" data-name="Trazado 3171" d="M0,24.124A49.769,49.769,0,0,0,2.122,11.082C1.886,5.866,2.358,1.123,4.494.412S8.052-.532,8.755,3.495C9.248,7.288,4.98,23.177,0,24.124Z" transform="translate(17.418 19.214)" fill="#f1ab72"/>
            <path id="Trazado_3172-2" data-name="Trazado 3172" d="M12.677,79.853S27.141,67.761,34.017,55.9s6.632-15.652,6.165-17.547a29.1,29.1,0,0,0,2.372-22.051c-3.08-9.248-4.977-12.328-8.068-14.464S29.977-.279,29.032.421a1.857,1.857,0,0,0-.475,1.661,2.239,2.239,0,0,0-2.372.711c-.95,1.186-.475,8.537-.475,13.265a43.773,43.773,0,0,1-4.743,20.393c-4.255,7.365-7.818,9.5-10.426,8.312S7.695,38.13,8.419,36.225s3.794-7.587,3.083-11.381c-.475-3.558-.95-4.03-3.319-3.794S1.551,25.08.6,31.721.121,60.638.121,65.148Z" transform="translate(0)" fill="#f7c792"/>
            <path id="Trazado_3173-2" data-name="Trazado 3173" d="M0,.979c0,.475,5.927,4.743,7.113,11.142A37.937,37.937,0,0,1,6.4,29.432C4.98,34.411,2.608,40.574,2.608,40.574A43.654,43.654,0,0,0,9.484,28.007c1.186-5.216,1.422-13.278-.95-18.021A25.63,25.63,0,0,0,2.122.738C.472-.212.236.027.236.027S0,.029,0,.979Z" transform="translate(28.566 1.098)" fill="#f1ab72"/>
            <path id="Trazado_3174-2" data-name="Trazado 3174" d="M4.269,0S.475,6.632,0,7.113A9.834,9.834,0,0,0,4.269,3.794,9.421,9.421,0,0,0,4.269,0Z" transform="translate(35.917 38.122)" fill="#f1ab72"/>
          </g>
        </g>
        <g id="Grupo_6942" data-name="Grupo 6942" transform="translate(165.739 234.984)">
          <path id="Trazado_3175" data-name="Trazado 3175" d="M137.245,119.949s24.9.236,35.815,7.587,19.682,11.142,22.285,25.845-6.4,101.486-6.4,101.486L181.594,340.7s-10.906,14.939-44.341,15.886c-39.126.947-53.115-15.414-53.115-15.414S74.89,231.383,73.232,208.146s-8.062-48.61,3.083-66.631C87.68,123.26,118.276,119.227,137.245,119.949Z" transform="translate(-69.897 -77.258)" fill="#b9c9df"/>
          <path id="Trazado_3176" data-name="Trazado 3176" d="M85.7,101.9c.95,1.9,6.165,36.99,9.484,49.079,3.558,12.092,15.652,17.072,15.652,17.072s15.175-7.587,16.836-17.31,8.062-48.61,8.062-48.61H85.7Z" transform="translate(-48.229 -101.9)" fill="#f1ab72"/>
          <path id="Trazado_3177" data-name="Trazado 3177" d="M102.666,116.5l1.422,7.351a251.87,251.87,0,0,0,17.547,22.051l-3.558,7.587s-9.484-9.484-14.464-9.484S85.838,152.547,78,157.763A85.218,85.218,0,0,1,90.1,128.6C99.1,115.793,102.666,116.5,102.666,116.5Z" transform="translate(-58.78 -81.884)" fill="#a0bada"/>
          <path id="Trazado_3178" data-name="Trazado 3178" d="M97.31,126.9l-4.51,8.062,4.98,4.269,3.558-7.587Z" transform="translate(-38.494 -67.62)" fill="#7d96b1"/>
          <path id="Trazado_3179" data-name="Trazado 3179" d="M95.234,175.28a96.1,96.1,0,0,1,0-21.1c1.422-8.062,20.162-29.639,20.162-29.639L117.768,116s5.691,2.847,14.7,18.258,6.876,25.373,6.876,25.373-12.567-15.652-21.1-15.175c-4.269.236-12.092,2.847-13.042,10.2a154.488,154.488,0,0,0-.475,19.682Z" transform="translate(-35.948 -82.565)" fill="#a0bada"/>
        </g>
      </g>
    </g>
    <g id="Grupo_6947" data-name="Grupo 6947" transform="translate(90.815 -0.017)">
      <path id="Trazado_3180" data-name="Trazado 3180" d="M132.1,60.518s15.414-11.142,30.825-2.372,2.372,42.681-7.826,49.321-17.072,1.661-17.072,1.661Z" transform="translate(90.317 75.212)" fill="#f1ab72"/>
      <path id="Trazado_3181" data-name="Trazado 3181" d="M56.8,42.9s1.186,27.981,5.216,41.97c4.03,13.753,7.113,17.31,7.113,17.31l7.113-55.712Z" transform="translate(-12.934 58.922)" fill="#5b140d"/>
      <path id="Trazado_3182" data-name="Trazado 3182" d="M68,53.228s0,44.569-6.632,74.694S57.8,189.568,89.819,207.364s67.578,26.559,118.56-2.372S236.12,107.3,236.12,107.3s-2.372-71.136-16.6-73.508C205.524,31.174,91.233,35.917,68,53.228Z" transform="translate(-10.612 45.514)" fill="#f7c792"/>
      <path id="Trazado_3183" data-name="Trazado 3183" d="M201.742,81.151s18.5,14.228,20.629,43.866c1.9,29.639,1.661,49.079,1.661,49.079S241.1,148.725,242.289,107.7s-4.269-52.878-4.269-52.878-22.526,1.661-37.937-11.142S165.7,13.573,155.031,9.3a130.493,130.493,0,0,1,.711,19.443s-13.517-23-62.6-28.217a186.785,186.785,0,0,0-29.166,0l5.216,15.886S52.6,45.6,74.422,56.729,201.742,81.151,201.742,81.151Z" transform="translate(-4.222 0.039)" fill="#712a1c"/>
      <path id="Trazado_3184" data-name="Trazado 3184" d="M237.48,72.286s-29.639,22.526-80.145,29.166-71.611.475-89.4-24.187S38.3,18.458,38.3,18.458a129.729,129.729,0,0,1,69.95-10.67C149.034,12.532,226.1,58.059,237.48,72.286Z" transform="translate(-38.3 9.381)" fill="#712921"/>
      <path id="Trazado_3185" data-name="Trazado 3185" d="M105.952,71.2S97.885,89.7,87.22,90.88a77.857,77.857,0,0,0-11.62,1.9s10.906,17.31,20.162,18.258c9.248.711,9.959-1.186,9.959-1.186s-10.678-2.833-14.469-10.667C99.076,95.872,104.517,89.458,105.952,71.2Z" transform="translate(12.846 97.726)" fill="#f1ab72"/>
      <path id="Trazado_3186" data-name="Trazado 3186" d="M69.4,101.851s42.681,4.743,71.364-.475,48.61-9.959,53.589-15.175c0,0-17.775,42.919-61.177,45.052a73.168,73.168,0,0,1-63.777-29.4Z" transform="translate(4.344 118.295)" fill="#fffeff"/>
      <g id="Grupo_6945" data-name="Grupo 6945" transform="translate(142.192 142.375)">
        <path id="Trazado_3187" data-name="Trazado 3187" d="M147.9,93.424a69.128,69.128,0,0,0-8.537-18.969,23.751,23.751,0,0,0-6.876-6.876,16.5,16.5,0,0,0-8.773-2.608,30.578,30.578,0,0,0-9.484,1.422,20.3,20.3,0,0,0-7.826,5.454A34.979,34.979,0,0,0,98.581,90.58a29.4,29.4,0,0,1,4.98-21.1,22.89,22.89,0,0,1,9.02-7.351A31.267,31.267,0,0,1,123.962,60,18.592,18.592,0,0,1,135.1,63.8a23.553,23.553,0,0,1,7.351,8.773,41.519,41.519,0,0,1,4.03,10.2A50.407,50.407,0,0,1,147.9,93.424Z" transform="translate(-98.268 -60.002)" fill="#5b140d"/>
      </g>
      <g id="Grupo_6946" data-name="Grupo 6946" transform="translate(66.215 144.039)">
        <path id="Trazado_3188" data-name="Trazado 3188" d="M110.274,89.385c-.95-2.847-2.122-5.691-3.319-8.537a49.18,49.18,0,0,0-4.51-7.587,33.329,33.329,0,0,0-5.927-5.691,14.105,14.105,0,0,0-7.587-2.122,22.932,22.932,0,0,0-8.062,1.186A20.874,20.874,0,0,0,73.993,70.9a32.034,32.034,0,0,0-7.351,15.652A21.863,21.863,0,0,1,79.208,62.367a27.06,27.06,0,0,1,9.723-1.661,19.632,19.632,0,0,1,9.723,3.083,21.863,21.863,0,0,1,6.632,7.351,31.04,31.04,0,0,1,3.576,8.755A34.1,34.1,0,0,1,110.274,89.385Z" transform="translate(-66.23 -60.704)" fill="#5b140d"/>
      </g>
      <path id="Trazado_3189" data-name="Trazado 3189" d="M67.1,63.553S73.5,49.8,87.729,49.8s17.308,8.062,17.308,8.062a41.1,41.1,0,0,0-18.5-1.422A43.675,43.675,0,0,0,67.1,63.553Z" transform="translate(1.189 68.383)" fill="#5b140d" stroke="#5b140d" stroke-miterlimit="10" stroke-width="1"/>
      <path id="Trazado_3190" data-name="Trazado 3190" d="M103,55.057s10.906-10.67,24.187-5.691c13.53,4.98,13.53,13.53,13.53,13.53A46.209,46.209,0,0,0,103,55.057Z" transform="translate(50.417 65.973)" fill="#5b140d" stroke="#5b140d" stroke-miterlimit="10" stroke-width="1"/>
    </g>
  </g>
</svg>
